# xmcd
#
# Track frame offsets:
#	150
#	16033
#	33573
#	52444
#	70810
#	94416
#	115848
#	130600
#	151455
#	171872
#	192079
#
# Disc length: 2789 seconds
#
# Revision: 0
# Processed by: cddbd v1.5.2PL0 Copyright (c) Steve Scherf et al.
# Submitted via: EasyCDDAExtractor 12.1.0.1
#
DISCID=930ae30b
DTITLE=Blue Stuff - ...Altra gente...Altro blues...
DYEAR=2008
DGENRE=Blues
TTITLE0=Soldi
TTITLE1=I che cultura
TTITLE2=C'era un posto
TTITLE3=Krotal trophy
TTITLE4=Sosta il fondo
TTITLE5=Boogie, comma'
TTITLE6=Ricordi di blues
TTITLE7=Vico fiorito
TTITLE8=Bella famme 'nu quiz
TTITLE9=Smania 'e parti'
TTITLE10=N.O.LA.
EXTD=
EXTT0=
EXTT1=
EXTT2=
EXTT3=
EXTT4=
EXTT5=
EXTT6=
EXTT7=
EXTT8=
EXTT9=
EXTT10=
PLAYORDER=
